<svg width="128" height="56" viewBox="0 0 128 56" fill="none" xmlns="http://www.w3.org/2000/svg">
<g clip-path="url(#clip0_10_46)">
<path fill-rule="evenodd" clip-rule="evenodd" d="M111.145 44.6234C111.145 44.8229 111.145 45.0224 111.145 45.2219C111.145 46.9177 111.145 50.1097 109.937 50.9077C109.132 51.4065 108.226 51.5062 107.522 51.1072C106.818 50.7082 106.415 49.8105 106.516 48.813C106.717 46.6185 108.73 44.1247 111.145 42.1297C111.145 42.2294 111.145 44.6234 111.145 44.6234ZM120 36.6434C119.899 35.9451 119.195 35.4464 118.491 35.6459C117.082 35.9451 115.472 36.5436 113.761 37.4414C113.761 35.5461 113.761 26.3691 113.761 24.4738C113.761 23.7756 113.157 23.1771 112.453 23.1771C111.748 23.1771 111.145 23.7756 111.145 24.4738C111.145 26.3691 111.145 31.0574 111.145 31.7556C110.943 34.5486 108.629 36.6434 105.711 36.6434C102.692 36.6434 100.277 34.2494 100.277 31.2569V23.8753C100.277 23.1771 99.6729 22.5786 98.9685 22.5786C98.3647 22.5786 97.8616 22.9776 97.2578 23.0773C96.5534 23.2768 95.5471 23.2768 94.6415 23.1771C94.3396 23.1771 91.8239 22.7781 91.8239 22.6783V18.389C91.8239 18.1895 91.8239 17.99 91.9245 17.7905C92.0251 17.591 92.1257 17.3915 92.327 17.2918C92.5283 17.0923 92.7295 16.9925 92.9308 16.8928C93.132 16.793 93.4339 16.793 93.8364 16.793C94.5408 16.793 95.1446 16.8928 95.5471 16.8928C96.654 16.8928 97.1572 16.394 97.1572 15.6958C97.1572 14.798 96.5534 14 93.8364 14C93.3333 14 92.5283 14.0998 91.9245 14.2993C91.3207 14.4988 90.8176 14.798 90.4151 15.197C90.0125 15.596 89.61 16.0948 89.4088 16.5935C89.2075 17.0923 89.0062 17.6908 89.0062 18.389V22.2793C88.9056 22.2793 88.805 22.2793 88.7044 22.2793C87.8993 22.2793 86.9937 22.3791 86.1886 22.7781C85.5849 23.0773 85.283 23.8753 85.5849 24.4738C85.8867 25.0723 86.6918 25.3716 87.2956 25.0723C87.6981 24.8728 88.1006 24.7731 88.7044 24.7731C88.805 24.7731 88.9056 24.7731 89.0062 24.7731V42.7282C89.0062 42.9277 89.0062 43.1272 89.1069 43.3267C89.2075 43.5262 89.3081 43.6259 89.4088 43.7257C89.5094 43.8254 89.7107 43.9252 89.8113 44.0249C90.0125 44.1247 90.1132 44.1247 90.3144 44.1247C90.5157 44.1247 90.6163 44.1247 90.8176 44.0249C91.0188 43.9252 91.1195 43.8254 91.2201 43.7257C91.3207 43.6259 91.4213 43.4264 91.522 43.3267C91.6226 43.1272 91.6226 42.9277 91.6226 42.7282V25.2718C92.8301 25.4713 94.2389 25.7706 95.7484 25.7706C95.7484 25.7706 96.654 25.7706 97.5597 25.6708V31.1571C97.5597 35.5461 101.182 39.0374 105.509 39.0374C107.623 39.0374 109.434 38.2394 110.943 36.9426C110.943 37.5411 110.943 38.2394 110.943 38.8379C107.22 41.4314 104 45.1222 103.698 48.6135C103.497 50.6085 104.402 52.404 106.013 53.3018C106.717 53.7008 107.522 53.9003 108.327 53.9003C109.333 53.9003 110.239 53.601 111.145 53.0025C113.56 51.4065 113.56 47.616 113.459 45.2219C113.459 45.0224 113.459 44.8229 113.459 44.6234V40.7332V40.2344C115.27 39.0374 117.182 38.2394 118.591 38.0399C119.597 37.9402 120.101 37.3416 120 36.6434Z" fill="#212121"/>
<path fill-rule="evenodd" clip-rule="evenodd" d="M19.2704 26.4688L15.5472 39.2369H13.0314L8 22.9776H10.5157L14.5409 36.6434L18.2642 22.9776H20.478L24.3019 36.6434L28.1258 22.9776H30.5409L25.6101 39.2369H23.0943L19.2704 26.4688Z" fill="white"/>
<path fill-rule="evenodd" clip-rule="evenodd" d="M42.2138 31.3566H38.4906C34.9685 31.3566 33.8616 32.6534 33.8616 34.6484C33.8616 36.4439 35.2704 37.7406 37.6855 37.7406C39.7987 37.7406 41.4088 36.8429 42.2138 36.2444V31.3566ZM32.956 25.1721L32.5535 23.3765C34.6667 22.9775 36.8805 22.778 38.5912 22.778C42.3145 22.778 44.4277 23.9751 44.4277 28.0648V39.1372H42.2138V37.5411H42.1132C40.5031 38.9376 38.9937 39.4364 36.7799 39.4364C33.5597 39.4364 31.4465 37.6409 31.4465 34.8479C31.4465 31.4564 34.1635 29.9601 38.2893 29.9601H42.2138V28.1646C42.2138 25.7706 41.1069 24.6733 38.1887 24.6733C36.9811 24.5736 35.3711 24.6733 32.956 25.1721Z" fill="white"/>
<path fill-rule="evenodd" clip-rule="evenodd" d="M48.956 24.6733H46.4403V23.177L48.956 22.9775L49.2579 18.4888H51.2705V22.9775H56.1007V24.5736H51.2705V33.9501C51.2705 36.3441 51.8743 37.5411 54.1887 37.5411C54.6919 37.5411 55.195 37.5411 56.0001 37.3416L56.2013 39.1372C55.3963 39.2369 54.1887 39.3367 53.4843 39.3367C50.3648 39.3367 48.956 38.0399 48.956 34.2494V24.6733Z" fill="white"/>
<path fill-rule="evenodd" clip-rule="evenodd" d="M60.0252 29.8604H69.1824C69.2831 29.2619 69.3837 28.6634 69.3837 28.0648C69.2831 26.0698 68.1761 24.4738 65.1573 24.4738C61.434 24.4738 60.2265 26.8678 60.0252 29.8604ZM60.0252 31.3566C60.1258 34.9476 61.5346 37.5412 65.8617 37.5412C67.4717 37.5412 69.0818 37.4414 70.8931 36.9427L71.195 38.7382C69.2831 39.2369 67.673 39.4364 65.5598 39.4364C59.7233 39.4364 57.6101 36.0449 57.6101 31.0574C57.6101 26.0698 59.7233 22.6783 65.3585 22.6783C70.39 22.6783 71.8994 25.7706 71.6982 29.1621C71.6982 29.8604 71.5975 30.4589 71.3963 31.2569H60.0252V31.3566Z" fill="white"/>
<path fill-rule="evenodd" clip-rule="evenodd" d="M77.2327 39.0374H74.9182V22.9776H77.2327V25.5711H77.3333C78.7421 24.1746 81.0566 22.6783 83.6729 22.6783V24.7731C81.1572 24.7731 78.5409 26.0698 77.2327 26.9676V39.0374Z" fill="white"/>
</g>
<defs>
<clipPath id="clip0_10_46">
<rect width="112" height="40" fill="white" transform="translate(8 14)"/>
</clipPath>
</defs>
</svg>
