<svg width="128" height="56" viewBox="0 0 128 56" fill="none" xmlns="http://www.w3.org/2000/svg">
<g clip-path="url(#clip0_10_37)">
<path fill-rule="evenodd" clip-rule="evenodd" d="M117.88 45.217C117.88 45.4464 117.88 45.6758 117.88 45.9052C117.88 47.8554 117.88 51.5262 116.5 52.4439C115.579 53.0175 114.544 53.1322 113.739 52.6733C112.934 52.2145 112.474 51.182 112.589 50.0349C112.819 47.5112 115.119 44.6434 117.88 42.3491C117.88 42.4638 117.88 45.217 117.88 45.217ZM128 36.0399C127.885 35.2369 127.08 34.6633 126.275 34.8928C124.665 35.2369 122.825 35.9252 120.87 36.9576C120.87 34.7781 120.87 24.2244 120.87 22.0449C120.87 21.2419 120.18 20.5536 119.375 20.5536C118.57 20.5536 117.88 21.2419 117.88 22.0449C117.88 24.2244 117.88 29.616 117.88 30.419C117.65 33.6309 115.004 36.0399 111.669 36.0399C108.219 36.0399 105.459 33.2868 105.459 29.8454V21.3566C105.459 20.5536 104.769 19.8653 103.964 19.8653C103.274 19.8653 102.699 20.3242 102.009 20.4389C101.204 20.6683 100.054 20.6683 99.0188 20.5536C98.6738 20.5536 95.7987 20.0948 95.7987 19.98V15.0474C95.7987 14.818 95.7987 14.5885 95.9137 14.3591C96.0287 14.1297 96.1437 13.9002 96.3737 13.7855C96.6037 13.5561 96.8338 13.4414 97.0638 13.3267C97.2938 13.212 97.6388 13.212 98.0988 13.212C98.9038 13.212 99.5939 13.3267 100.054 13.3267C101.319 13.3267 101.894 12.7531 101.894 11.9501C101.894 10.9177 101.204 10 98.0988 10C97.5238 10 96.6037 10.1147 95.9137 10.3441C95.2237 10.5736 94.6487 10.9177 94.1886 11.3766C93.7286 11.8354 93.2686 12.409 93.0386 12.9825C92.8086 13.5561 92.5786 14.2444 92.5786 15.0474V19.5212C92.4636 19.5212 92.3486 19.5212 92.2336 19.5212C91.3135 19.5212 90.2785 19.6359 89.3585 20.0948C88.6684 20.4389 88.3234 21.3566 88.6684 22.0449C89.0134 22.7332 89.9335 23.0773 90.6235 22.7332C91.0835 22.5037 91.5435 22.389 92.2336 22.389C92.3486 22.389 92.4636 22.389 92.5786 22.389V43.0374C92.5786 43.2668 92.5786 43.4963 92.6936 43.7257C92.8086 43.9551 92.9236 44.0698 93.0386 44.1845C93.1536 44.2993 93.3836 44.414 93.4986 44.5287C93.7286 44.6434 93.8436 44.6434 94.0736 44.6434C94.3037 44.6434 94.4187 44.6434 94.6487 44.5287C94.8787 44.414 94.9937 44.2993 95.1087 44.1845C95.2237 44.0698 95.3387 43.8404 95.4537 43.7257C95.5687 43.4963 95.5687 43.2668 95.5687 43.0374V22.9626C96.9488 23.192 98.5588 23.5362 100.284 23.5362C100.284 23.5362 101.319 23.5362 102.354 23.4214V29.7307C102.354 34.7781 106.494 38.793 111.439 38.793C113.854 38.793 115.924 37.8753 117.65 36.384C117.65 37.0723 117.65 37.8753 117.65 38.5636C113.394 41.5461 109.714 45.7905 109.369 49.8055C109.139 52.0998 110.174 54.1646 112.014 55.197C112.819 55.6559 113.739 55.8853 114.659 55.8853C115.809 55.8853 116.845 55.5411 117.88 54.8529C120.64 53.0175 120.64 48.6584 120.525 45.9052C120.525 45.6758 120.525 45.4464 120.525 45.217V40.7431V40.1696C122.595 38.793 124.78 37.8753 126.39 37.6459C127.54 37.5312 128.115 36.8429 128 36.0399Z" fill="#212121"/>
<path fill-rule="evenodd" clip-rule="evenodd" d="M12.8805 24.3392L8.62534 39.0224H5.75023L0 20.3242H2.87511L7.47529 36.0399L11.7305 20.3242H14.2606L18.6307 36.0399L23.0009 20.3242H25.761L20.1258 39.0224H17.2507L12.8805 24.3392Z" fill="#00AEC7"/>
<path fill-rule="evenodd" clip-rule="evenodd" d="M39.1015 29.9601H34.8463C30.8212 29.9601 29.5561 31.4514 29.5561 33.7456C29.5561 35.8105 31.1662 37.3017 33.9263 37.3017C36.3414 37.3017 38.1815 36.2693 39.1015 35.581V29.9601ZM28.5211 22.8479L28.0611 20.783C30.4762 20.3242 33.0063 20.0948 34.9613 20.0948C39.2165 20.0948 41.6316 21.4713 41.6316 26.1746V38.9077H39.1015V37.0723H38.9865C37.1464 38.6783 35.4214 39.2519 32.8913 39.2519C29.2111 39.2519 26.796 37.187 26.796 33.9751C26.796 30.0748 29.9011 28.3541 34.6163 28.3541H39.1015V26.2893C39.1015 23.5362 37.8365 22.2743 34.5013 22.2743C33.1213 22.1596 31.2812 22.2743 28.5211 22.8479Z" fill="#00AEC7"/>
<path fill-rule="evenodd" clip-rule="evenodd" d="M46.8069 22.2743H43.9318V20.5536L46.8069 20.3242L47.1519 15.1621H49.452V20.3242H54.9722V22.1596H49.452V32.9427C49.452 35.6958 50.142 37.0723 52.7871 37.0723C53.3621 37.0723 53.9372 37.0723 54.8572 36.8429L55.0872 38.9077C54.1672 39.0225 52.7871 39.1372 51.9821 39.1372C48.4169 39.1372 46.8069 37.6459 46.8069 33.2868V22.2743Z" fill="#00AEC7"/>
<path fill-rule="evenodd" clip-rule="evenodd" d="M59.4574 28.2394H69.9228C70.0378 27.5511 70.1528 26.8628 70.1528 26.1746C70.0378 23.8803 68.7727 22.0449 65.3226 22.0449C61.0674 22.0449 59.6874 24.798 59.4574 28.2394ZM59.4574 29.9601C59.5724 34.0898 61.1824 37.0723 66.1276 37.0723C67.9677 37.0723 69.8078 36.9576 71.8779 36.384L72.2229 38.4489C70.0378 39.0224 68.1977 39.2519 65.7826 39.2519C59.1124 39.2519 56.6973 35.3516 56.6973 29.616C56.6973 23.8803 59.1124 19.98 65.5526 19.98C71.3028 19.98 73.0279 23.5362 72.7979 27.4364C72.7979 28.2394 72.6829 28.9277 72.4529 29.8454H59.4574V29.9601Z" fill="#00AEC7"/>
<path fill-rule="evenodd" clip-rule="evenodd" d="M79.1231 38.793H76.478V20.3242H79.1231V23.3067H79.2381C80.8482 21.7007 83.4933 19.98 86.4834 19.98V22.389C83.6083 22.389 80.6182 23.8803 79.1231 24.9127V38.793Z" fill="#00AEC7"/>
</g>
<defs>
<clipPath id="clip0_10_37">
<rect width="128" height="46" fill="white" transform="translate(0 10)"/>
</clipPath>
</defs>
</svg>
