<svg width="24" height="24" viewBox="0 0 24 24" fill="none" xmlns="http://www.w3.org/2000/svg">
<mask id="mask0_847_22476" style="mask-type:alpha" maskUnits="userSpaceOnUse" x="0" y="0" width="24" height="24">
<rect width="24" height="24" fill="#D9D9D9"/>
</mask>
<g mask="url(#mask0_847_22476)">
<path d="M9.14935 19.0464V17.4806H21V19.0464H9.14935ZM9.14935 12.7829V11.2171H21V12.7829H9.14935ZM9.14935 6.5194V4.95357H21V6.5194H9.14935ZM4.7613 20C4.27694 20 3.86231 19.83 3.5174 19.4899C3.17246 19.1499 3 18.7411 3 18.2635C3 17.786 3.17246 17.3772 3.5174 17.0371C3.86231 16.6971 4.27694 16.527 4.7613 16.527C5.24567 16.527 5.6603 16.6971 6.00521 17.0371C6.35013 17.3772 6.52258 17.786 6.52258 18.2635C6.52258 18.7411 6.35013 19.1499 6.00521 19.4899C5.6603 19.83 5.24567 20 4.7613 20ZM4.7613 13.7365C4.27694 13.7365 3.86231 13.5665 3.5174 13.2264C3.17246 12.8863 3 12.4775 3 12C3 11.5225 3.17246 11.1137 3.5174 10.7736C3.86231 10.4335 4.27694 10.2635 4.7613 10.2635C5.24567 10.2635 5.6603 10.4335 6.00521 10.7736C6.35013 11.1137 6.52258 11.5225 6.52258 12C6.52258 12.4775 6.35013 12.8863 6.00521 13.2264C5.6603 13.5665 5.24567 13.7365 4.7613 13.7365ZM4.7613 7.47296C4.27694 7.47296 3.86231 7.30294 3.5174 6.96288C3.17246 6.62282 3 6.21402 3 5.73648C3 5.25894 3.17246 4.85014 3.5174 4.51008C3.86231 4.17003 4.27694 4 4.7613 4C5.24567 4 5.6603 4.17003 6.00521 4.51008C6.35013 4.85014 6.52258 5.25894 6.52258 5.73648C6.52258 6.21402 6.35013 6.62282 6.00521 6.96288C5.6603 7.30294 5.24567 7.47296 4.7613 7.47296Z" fill="#6B7075"/>
</g>
</svg>
