<svg width="18" height="18" viewBox="0 0 18 18" fill="none" xmlns="http://www.w3.org/2000/svg">
<path d="M2.3077 17.5C1.80257 17.5 1.375 17.325 1.025 16.975C0.675 16.625 0.5 16.1974 0.5 15.6923V2.3077C0.5 1.80257 0.675 1.375 1.025 1.025C1.375 0.675 1.80257 0.5 2.3077 0.5H12.7884L17.5 5.21153V15.6923C17.5 16.1974 17.325 16.625 16.975 16.975C16.625 17.325 16.1974 17.5 15.6923 17.5H2.3077ZM2.3077 16H15.6923C15.782 16 15.8557 15.9711 15.9134 15.9134C15.9711 15.8557 16 15.782 16 15.6923V5.99998H12V1.99998H2.3077C2.21795 1.99998 2.14423 2.02883 2.08653 2.08653C2.02883 2.14423 1.99997 2.21795 1.99997 2.3077V15.6923C1.99997 15.782 2.02883 15.8557 2.08653 15.9134C2.14423 15.9711 2.21795 16 2.3077 16ZM4.25 13.5H13.75V12H4.25V13.5ZM4.25 5.99998H8.99998V4.5H4.25V5.99998ZM4.25 9.74995H13.75V8.25H4.25V9.74995Z" fill="#005966"/>
</svg>
