<svg width="24" height="24" viewBox="0 0 24 24" fill="none" xmlns="http://www.w3.org/2000/svg">
<mask id="mask0_847_22469" style="mask-type:alpha" maskUnits="userSpaceOnUse" x="0" y="0" width="24" height="24">
<rect width="24" height="24" fill="#D9D9D9"/>
</mask>
<g mask="url(#mask0_847_22469)">
<path d="M20.9862 22L18.4629 19.4383C18.141 19.6381 17.8007 19.7977 17.4419 19.917C17.0831 20.0364 16.7094 20.0961 16.3207 20.0961C15.2662 20.0961 14.3675 19.7176 13.6244 18.9604C12.8813 18.2033 12.5098 17.2875 12.5098 16.213C12.5098 15.1386 12.8813 14.2228 13.6244 13.4656C14.3675 12.7085 15.2662 12.3299 16.3207 12.3299C17.3751 12.3299 18.2739 12.7085 19.017 13.4656C19.76 14.2228 20.1315 15.1386 20.1315 16.213C20.1315 16.6064 20.0761 16.9881 19.9651 17.3582C19.8541 17.7283 19.6913 18.0742 19.4767 18.3959L22 20.967L20.9862 22ZM16.3186 18.6259C16.981 18.6259 17.5416 18.3928 18.0004 17.9267C18.4592 17.4607 18.6886 16.8901 18.6886 16.2151C18.6886 15.5401 18.4599 14.9689 18.0025 14.5014C17.5451 14.0339 16.9852 13.8002 16.3228 13.8002C15.6603 13.8002 15.0997 14.0332 14.6409 14.4993C14.1821 14.9654 13.9527 15.5359 13.9527 16.2109C13.9527 16.8859 14.1814 17.4571 14.6388 17.9246C15.0962 18.3921 15.6561 18.6259 16.3186 18.6259ZM20.3536 10.3695H18.9106V5.43072C18.9106 5.35531 18.8798 5.28618 18.8181 5.22333C18.7565 5.1605 18.6886 5.12909 18.6146 5.12909H16.5057V7.69269H7.84791V5.12909H5.73897C5.66496 5.12909 5.59712 5.1605 5.53544 5.22333C5.47377 5.28618 5.44294 5.35531 5.44294 5.43072V18.5504C5.44294 18.6258 5.47377 18.695 5.53544 18.7578C5.59712 18.8207 5.66496 18.8521 5.73897 18.8521H10.4934V20.3224H5.73897C5.26075 20.3224 4.85137 20.1489 4.51083 19.8018C4.17028 19.4549 4 19.0377 4 18.5504V5.43072C4 4.94344 4.17028 4.5263 4.51083 4.17931C4.85137 3.8323 5.26075 3.65879 5.73897 3.65879H9.97723C10.1104 3.18126 10.3827 2.78542 10.794 2.47126C11.2053 2.15709 11.6662 2 12.1768 2C12.7071 2 13.1754 2.15709 13.5818 2.47126C13.9882 2.78542 14.258 3.18126 14.3911 3.65879H18.6146C19.0928 3.65879 19.5022 3.8323 19.8427 4.17931C20.1833 4.5263 20.3536 4.94344 20.3536 5.43072V10.3695ZM12.1784 5.2422C12.4252 5.2422 12.6316 5.15714 12.7974 4.987C12.9633 4.81689 13.0463 4.60608 13.0463 4.35459C13.0463 4.1031 12.9628 3.89285 12.7958 3.72383C12.6289 3.55481 12.422 3.4703 12.1752 3.4703C11.9284 3.4703 11.722 3.55535 11.5561 3.72547C11.3902 3.8956 11.3073 4.10641 11.3073 4.3579C11.3073 4.60939 11.3908 4.81965 11.5578 4.98867C11.7247 5.15769 11.9316 5.2422 12.1784 5.2422Z" fill="#005966"/>
</g>
</svg>
