<svg width="20" height="13" viewBox="0 0 20 13" fill="none" xmlns="http://www.w3.org/2000/svg">
<path d="M0.576904 12.6353V11.1353H10.2692V12.6353H0.576904ZM0.576904 7.75068V6.25073H5.26918V7.75068H0.576904ZM0.576904 2.86608V1.3661H5.26918V2.86608H0.576904ZM18.3692 12.6545L14.5384 8.82375C14.164 9.10067 13.7538 9.31157 13.3076 9.45645C12.8615 9.60132 12.4063 9.67375 11.9422 9.67375C10.6935 9.67375 9.63136 9.23594 8.75573 8.3603C7.8801 7.48467 7.44228 6.4225 7.44228 5.1738C7.44228 3.92509 7.8801 2.86291 8.75573 1.98728C9.63136 1.11165 10.6935 0.673828 11.9422 0.673828C13.1909 0.673828 14.2531 1.11165 15.1288 1.98728C16.0044 2.86291 16.4422 3.92509 16.4422 5.1738C16.4422 5.6379 16.3698 6.09303 16.2249 6.53918C16.08 6.98533 15.8691 7.39558 15.5922 7.76993L19.423 11.6007L18.3692 12.6545ZM11.9422 8.1738C12.7756 8.1738 13.4839 7.88214 14.0672 7.2988C14.6506 6.71547 14.9422 6.00714 14.9422 5.1738C14.9422 4.34047 14.6506 3.63214 14.0672 3.0488C13.4839 2.46547 12.7756 2.1738 11.9422 2.1738C11.1089 2.1738 10.4006 2.46547 9.81723 3.0488C9.2339 3.63214 8.94223 4.34047 8.94223 5.1738C8.94223 6.00714 9.2339 6.71547 9.81723 7.2988C10.4006 7.88214 11.1089 8.1738 11.9422 8.1738Z" fill="white"/>
</svg>
