<svg width="4" height="20" viewBox="0 0 4 20" fill="none" xmlns="http://www.w3.org/2000/svg">
<path d="M1.99997 19.6931C1.44999 19.6931 0.979167 19.4972 0.5875 19.1056C0.195833 18.7139 0 18.2431 0 17.6931C0 17.1431 0.195833 16.6723 0.5875 16.2807C0.979167 15.889 1.44999 15.6932 1.99997 15.6932C2.54994 15.6932 3.02077 15.889 3.41243 16.2807C3.8041 16.6723 3.99993 17.1431 3.99993 17.6931C3.99993 18.2431 3.8041 18.7139 3.41243 19.1056C3.02077 19.4972 2.54994 19.6931 1.99997 19.6931ZM1.99997 12.0008C1.44999 12.0008 0.979167 11.805 0.5875 11.4133C0.195833 11.0216 0 10.5508 0 10.0008C0 9.45085 0.195833 8.98003 0.5875 8.58836C0.979167 8.19669 1.44999 8.00086 1.99997 8.00086C2.54994 8.00086 3.02077 8.19669 3.41243 8.58836C3.8041 8.98003 3.99993 9.45085 3.99993 10.0008C3.99993 10.5508 3.8041 11.0216 3.41243 11.4133C3.02077 11.805 2.54994 12.0008 1.99997 12.0008ZM1.99997 4.30849C1.44999 4.30849 0.979167 4.11266 0.5875 3.72099C0.195833 3.32935 0 2.85853 0 2.30853C0 1.75855 0.195833 1.28773 0.5875 0.89606C0.979167 0.504416 1.44999 0.308594 1.99997 0.308594C2.54994 0.308594 3.02077 0.504416 3.41243 0.89606C3.8041 1.28773 3.99993 1.75855 3.99993 2.30853C3.99993 2.85853 3.8041 3.32935 3.41243 3.72099C3.02077 4.11266 2.54994 4.30849 1.99997 4.30849Z" fill="white"/>
</svg>
