<svg width="16" height="16" viewBox="0 0 16 16" fill="none" xmlns="http://www.w3.org/2000/svg">
<path d="M12.9 13.6158L8.88333 9.59909C8.55 9.88798 8.16111 10.113 7.71667 10.2741C7.27222 10.4352 6.8 10.5158 6.3 10.5158C5.1 10.5158 4.08333 10.0991 3.25 9.26575C2.41667 8.43242 2 7.42687 2 6.24909C2 5.07131 2.41667 4.06576 3.25 3.23242C4.08333 2.39909 5.09444 1.98242 6.28333 1.98242C7.46111 1.98242 8.46389 2.39909 9.29167 3.23242C10.1194 4.06576 10.5333 5.07131 10.5333 6.24909C10.5333 6.72687 10.4556 7.18798 10.3 7.63242C10.1444 8.07687 9.91111 8.49353 9.6 8.88242L13.65 12.8991C13.75 12.988 13.8 13.1019 13.8 13.2408C13.8 13.3796 13.7444 13.5046 13.6333 13.6158C13.5333 13.7158 13.4111 13.7658 13.2667 13.7658C13.1222 13.7658 13 13.7158 12.9 13.6158ZM6.28333 9.51575C7.18333 9.51575 7.95 9.19631 8.58333 8.55742C9.21667 7.91853 9.53333 7.14909 9.53333 6.24909C9.53333 5.34909 9.21667 4.57964 8.58333 3.94076C7.95 3.30187 7.18333 2.98242 6.28333 2.98242C5.37222 2.98242 4.59722 3.30187 3.95833 3.94076C3.31944 4.57964 3 5.34909 3 6.24909C3 7.14909 3.31944 7.91853 3.95833 8.55742C4.59722 9.19631 5.37222 9.51575 6.28333 9.51575Z" fill="#6B7075"/>
</svg>
